<svg width="1024" height="1024" viewBox="0 0 1024 1024" xmlns="http://www.w3.org/2000/svg">
  <!-- Sparkles icon: white stroke, transparent background, 1024x1024 -->
  <svg x="62" y="62" width="900" height="900" viewBox="0 0 24 24" xmlns="http://www.w3.org/2000/svg">
    <path d="M9.937 15.5A2 2 0 0 0 8.5 14.063l-6.135-1.582a.5.5 0 0 1 0-.962L8.5 9.936A2 2 0 0 0 9.937 8.5l1.582-6.135a.5.5 0 0 1 .963 0L14.063 8.5A2 2 0 0 0 15.5 9.937l6.135 1.581a.5.5 0 0 1 0 .964L15.5 14.063a2 2 0 0 0-1.437 1.437l-1.582 6.135a.5.5 0 0 1-.963 0z"
          fill="none" stroke="white" stroke-width="1.5" stroke-linecap="round" stroke-linejoin="round"/>
    <path d="M20 3v4" fill="none" stroke="white" stroke-width="1.5" stroke-linecap="round"/>
    <path d="M22 5h-4" fill="none" stroke="white" stroke-width="1.5" stroke-linecap="round"/>
    <path d="M4 17v2" fill="none" stroke="white" stroke-width="1.5" stroke-linecap="round"/>
    <path d="M5 18H3" fill="none" stroke="white" stroke-width="1.5" stroke-linecap="round"/>
  </svg>
</svg>
